# xmcd
#
# Track frame offsets:
#        150
#        24735
#        47842
#        82505
#
# Disc length: 1499 seconds
#
# Revision: 0
# Processed by: cddbd v1.5.1PL0 Copyright (c) Steve Scherf et al.
# Submitted via: ExactAudioCopy v0.95a5
#
DISCID=2205d904
DTITLE=SHAKKAZOMBIE - So Tight,So Deep
DYEAR=2001
DGENRE=Hip-Hop
TTITLE0=So Tight,So Deep  feat.Michiko
TTITLE1=So Tight,So Deep  DJ HASEBE REMIX
TTITLE2=So Tight,So Deep  DJ HAZIME REMIX
TTITLE3=Right Here [CD-EXTRA VIDEO CLIP)
EXTD=
EXTT0=
EXTT1=
EXTT2=
EXTT3=
PLAYORDER=
